<svg width="196" height="41" viewBox="0 0 196 41" fill="none" xmlns="http://www.w3.org/2000/svg">
<path d="M15.1486 21.1V17.8L40.1086 40H30.2086L7.88859 19.6L27.6886 1.12H37.4086L15.1486 21.1ZM0.988594 1.12H7.88859V40H0.988594V1.12ZM63.6844 40.6C60.1244 40.6 56.8844 39.78 53.9644 38.14C51.0844 36.46 48.7844 34.12 47.0644 31.12C45.3444 28.12 44.4844 24.58 44.4844 20.5C44.4844 16.42 45.3444 12.88 47.0644 9.88C48.7844 6.84 51.0844 4.5 53.9644 2.86C56.8844 1.22 60.1244 0.399998 63.6844 0.399998C67.2444 0.399998 70.4644 1.22 73.3444 2.86C76.2644 4.5 78.5844 6.84 80.3044 9.88C82.0244 12.88 82.8844 16.42 82.8844 20.5C82.8844 24.58 82.0244 28.12 80.3044 31.12C78.5844 34.12 76.2644 36.46 73.3444 38.14C70.4644 39.78 67.2444 40.6 63.6844 40.6ZM63.6844 36.1C66.4044 36.1 68.8444 35.52 71.0044 34.36C73.1644 33.16 74.8844 31.4 76.1644 29.08C77.4444 26.76 78.0844 23.9 78.0844 20.5C78.0844 17.1 77.4444 14.26 76.1644 11.98C74.8844 9.66 73.1644 7.9 71.0044 6.7C68.8444 5.5 66.4044 4.9 63.6844 4.9C61.0044 4.9 58.5644 5.5 56.3644 6.7C54.2044 7.9 52.4844 9.66 51.2044 11.98C49.9244 14.26 49.2844 17.1 49.2844 20.5C49.2844 23.9 49.9244 26.76 51.2044 29.08C52.4844 31.4 54.2044 33.16 56.3644 34.36C58.5644 35.52 61.0044 36.1 63.6844 36.1ZM90.0984 40V1.6H127.898C135.658 1.6 141.378 2.36 145.058 3.88C148.738 5.4 150.578 8.04 150.578 11.8C150.578 14.2 149.778 16.04 148.178 17.32C146.618 18.6 144.358 19.5 141.398 20.02C138.478 20.5 134.958 20.8 130.838 20.92L131.318 20.44C134.318 20.44 137.098 20.52 139.658 20.68C142.218 20.84 144.458 21.2 146.378 21.76C148.298 22.32 149.798 23.18 150.878 24.34C151.958 25.5 152.498 27.1 152.498 29.14C152.498 31.62 151.618 33.66 149.858 35.26C148.098 36.86 145.598 38.06 142.358 38.86C139.118 39.62 135.298 40 130.898 40H90.0984ZM105.098 28.72H130.898C133.018 28.72 134.538 28.52 135.458 28.12C136.418 27.72 136.898 27.08 136.898 26.2C136.898 25.6 136.678 25.12 136.238 24.76C135.838 24.4 135.198 24.14 134.318 23.98C133.438 23.78 132.298 23.68 130.898 23.68H105.098V28.72ZM105.098 17.92H128.378C130.498 17.92 132.018 17.72 132.938 17.32C133.898 16.92 134.378 16.28 134.378 15.4C134.378 14.48 133.898 13.84 132.938 13.48C132.018 13.08 130.498 12.88 128.378 12.88H105.098V17.92ZM176.477 40.6C172.917 40.6 169.677 39.78 166.757 38.14C163.877 36.46 161.577 34.12 159.857 31.12C158.137 28.12 157.277 24.58 157.277 20.5C157.277 16.42 158.137 12.88 159.857 9.88C161.577 6.84 163.877 4.5 166.757 2.86C169.677 1.22 172.917 0.399998 176.477 0.399998C180.037 0.399998 183.257 1.22 186.137 2.86C189.057 4.5 191.377 6.84 193.097 9.88C194.817 12.88 195.677 16.42 195.677 20.5C195.677 24.58 194.817 28.12 193.097 31.12C191.377 34.12 189.057 36.46 186.137 38.14C183.257 39.78 180.037 40.6 176.477 40.6ZM176.477 36.1C179.197 36.1 181.637 35.52 183.797 34.36C185.957 33.16 187.677 31.4 188.957 29.08C190.237 26.76 190.877 23.9 190.877 20.5C190.877 17.1 190.237 14.26 188.957 11.98C187.677 9.66 185.957 7.9 183.797 6.7C181.637 5.5 179.197 4.9 176.477 4.9C173.797 4.9 171.357 5.5 169.157 6.7C166.997 7.9 165.277 9.66 163.997 11.98C162.717 14.26 162.077 17.1 162.077 20.5C162.077 23.9 162.717 26.76 163.997 29.08C165.277 31.4 166.997 33.16 169.157 34.36C171.357 35.52 173.797 36.1 176.477 36.1Z" fill="#568551"/>
</svg>
